<?xml version="1.0" encoding="UTF-8" standalone="no"?>
<!DOCTYPE svg PUBLIC "-//W3C//DTD SVG 1.1//EN" "http://www.w3.org/Graphics/SVG/1.1/DTD/svg11.dtd">
<svg width="100%" height="100%" viewBox="0 0 2224 1668" version="1.1" xmlns="http://www.w3.org/2000/svg" xmlns:xlink="http://www.w3.org/1999/xlink" xml:space="preserve" xmlns:serif="http://www.serif.com/" style="fill-rule:evenodd;clip-rule:evenodd;stroke-linejoin:round;stroke-miterlimit:2;">
    <g transform="matrix(3.06139,0,0,3.0436,-3468.75,-4570.41)">
        <g transform="matrix(2.00745,0,0,2.00745,10.089,665.105)">
            <path d="M772.645,539.573L569.055,539.573C563.762,539.567 559.408,535.213 559.402,529.92L559.402,426.37C559.408,421.077 563.762,416.723 569.055,416.717L772.645,416.717C777.938,416.723 782.292,421.077 782.298,426.37L782.298,529.92C782.292,535.213 777.938,539.567 772.645,539.573Z" style="fill:rgb(204,204,204);fill-rule:nonzero;"/>
        </g>
        <g transform="matrix(2.00745,0,0,2.00745,10.089,665.105)">
            <path d="M770.305,532.552L571.395,532.552C568.669,532.549 566.426,530.307 566.423,527.58L566.423,428.71C566.426,425.983 568.669,423.74 571.395,423.737L770.305,423.737C773.031,423.74 775.274,425.983 775.277,428.71L775.277,527.58C775.274,530.307 773.031,532.549 770.305,532.552Z" style="fill:white;fill-rule:nonzero;"/>
        </g>
        <g transform="matrix(2.00745,0,0,2.00745,10.089,665.105)">
            <path d="M758.785,557.515L736.415,535.145L765.095,535.87L765.095,554.901C765.111,556.398 764.202,557.758 762.813,558.316C762.358,558.507 761.869,558.606 761.375,558.607C760.401,558.604 759.468,558.21 758.785,557.515Z" style="fill:rgb(204,204,204);fill-rule:nonzero;"/>
        </g>
        <g transform="matrix(2.00745,0,0,2.00745,10.089,665.105)">
            <path d="M746.086,473.711L645.462,473.711C645.459,473.711 645.457,473.711 645.455,473.711C642.887,473.711 640.775,471.598 640.775,469.031C640.775,466.464 642.887,464.351 645.455,464.351C645.457,464.351 645.459,464.351 645.462,464.351L746.086,464.351C746.089,464.351 746.091,464.351 746.093,464.351C748.661,464.351 750.773,466.464 750.773,469.031C750.773,471.598 748.661,473.711 746.093,473.711C746.091,473.711 746.089,473.711 746.086,473.711Z" style="fill:rgb(204,204,204);fill-rule:nonzero;"/>
        </g>
        <g transform="matrix(2.00745,0,0,2.00745,10.089,665.105)">
            <path d="M713.325,453.82L645.462,453.82C642.894,453.82 640.781,451.708 640.781,449.14C640.781,446.573 642.894,444.46 645.462,444.46L713.325,444.46C715.892,444.46 718.005,446.573 718.005,449.14C718.005,451.708 715.892,453.82 713.325,453.82Z" style="fill:rgb(204,204,204);fill-rule:nonzero;"/>
        </g>
        <g transform="matrix(2.00745,0,0,2.00745,486,1072.79)">
            <circle cx="366.735" cy="255.998" r="14.626" style="fill:rgb(104,83,116);"/>
        </g>
        <g transform="matrix(2.00745,0,0,2.00745,486,1072.79)">
            <circle cx="478.005" cy="304.063" r="4.68" style="fill:rgb(230,230,230);"/>
        </g>
        <g transform="matrix(2.00745,0,0,2.00745,486,1072.79)">
            <circle cx="494.385" cy="304.063" r="4.68" style="fill:rgb(230,230,230);"/>
        </g>
        <g transform="matrix(2.00745,0,0,2.00745,486,1072.79)">
            <circle cx="510.766" cy="304.063" r="4.68" style="fill:rgb(230,230,230);"/>
        </g>
        <g transform="matrix(2.00745,0,0,2.00745,10.089,665.105)">
            <path d="M774.881,602.247C776.741,599.432 779.898,597.734 783.272,597.734C785.85,597.734 788.333,598.726 790.202,600.503L821.956,584.113L819.982,602.577L790.13,615.311C788.264,617.03 785.818,617.985 783.281,617.985C777.735,617.985 773.171,613.421 773.171,607.874C773.171,605.871 773.766,603.912 774.881,602.247L774.881,602.247Z" style="fill:rgb(255,224,224);fill-rule:nonzero;"/>
        </g>
        <g transform="matrix(2.00745,0,0,2.00745,10.089,665.105)">
            <path d="M873.754,520.157C868.709,516.21 861.62,516.051 856.403,519.767C855.254,520.592 854.228,521.575 853.354,522.687L825.474,574.397L799.744,593.837C798.891,594.479 798.295,595.405 798.064,596.447C797.889,597.211 797.92,598.009 798.153,598.757L800.684,606.917C800.954,607.794 801.484,608.568 802.204,609.137C802.484,609.348 802.786,609.528 803.104,609.677C803.142,609.698 803.182,609.715 803.224,609.727C804.357,610.214 805.643,610.21 806.774,609.717L836.934,596.637L837.264,596.487C847.427,591.99 855.64,583.983 860.394,573.937L876.254,540.467C881.115,534.203 879.989,525.055 873.754,520.157Z" style="fill:rgb(182,61,66);fill-rule:nonzero;"/>
        </g>
        <g transform="matrix(2.00745,0,0,2.00745,486,1072.79)">
            <circle cx="639.877" cy="273.454" r="24.561" style="fill:rgb(255,224,224);"/>
        </g>
        <g transform="matrix(2.00745,0,0,2.00745,10.089,665.105)">
            <path d="M893.574,640.787L893.324,638.877L892.164,630.167L890.894,620.657L886.384,621.427L884.644,621.717L882.884,622.017L882.304,622.117L837.564,629.717L831.994,626.367L831.874,626.297L831.924,626.807L832.974,637.697L837.984,689.717L900.104,689.717L893.574,640.787Z" style="fill:rgb(47,46,65);fill-rule:nonzero;"/>
        </g>
        <g transform="matrix(2.00745,0,0,2.00745,10.089,665.105)">
            <path d="M910.774,540.857C909.977,531.952 905.765,523.691 899.024,517.817C892.536,512.072 884.024,509.135 875.374,509.657C867.124,510.207 860.784,513.597 856.403,519.767C854.15,523.069 852.486,526.737 851.484,530.607C846.504,548.527 841.254,574.777 837.264,596.487C835.024,608.607 833.184,619.317 831.994,626.367C831.974,626.517 831.954,626.657 831.924,626.807C831.464,629.557 831.114,631.707 830.884,633.137C830.586,634.937 831.416,636.747 832.974,637.697C832.984,637.707 833.004,637.717 833.014,637.727C838.061,640.746 843.823,642.366 849.704,642.417C856.824,642.417 865.364,639.937 874.354,631.927C875.609,630.787 877.517,630.707 878.864,631.737L879.844,632.497L889.524,640.027C890.279,640.618 891.205,640.951 892.164,640.977C892.641,640.998 893.119,640.934 893.574,640.787C893.615,640.782 893.655,640.772 893.694,640.757C895.109,640.296 896.206,639.159 896.614,637.727C897.153,635.847 897.754,633.677 898.414,631.257C898.684,630.247 898.964,629.187 899.254,628.087C900.524,623.227 901.934,617.587 903.314,611.447C908.134,589.987 912.714,562.417 910.774,540.857Z" style="fill:rgb(182,61,66);fill-rule:nonzero;"/>
        </g>
        <g transform="matrix(2.00745,0,0,2.00745,10.089,665.105)">
            <path d="M870.327,643.353C870.305,643.081 870.294,642.809 870.294,642.536C870.294,637.02 874.833,632.48 880.349,632.48C880.669,632.48 880.988,632.496 881.306,632.526L896.178,600.033L906.019,615.78L890.388,644.222C889.594,649.093 885.344,652.707 880.409,652.707C875.147,652.707 870.72,648.6 870.327,643.353Z" style="fill:rgb(255,224,224);fill-rule:nonzero;"/>
        </g>
        <g transform="matrix(2.00745,0,0,2.00745,10.089,665.105)">
            <path d="M920.144,568.307L911.964,532.177C911.922,524.835 906.322,518.62 899.024,517.817C898.514,517.767 897.994,517.737 897.464,517.737C889.508,517.758 882.974,524.309 882.974,532.265C882.974,532.286 882.974,532.306 882.974,532.327L892.954,590.217L892.924,590.337L887.634,610.307L884.704,621.397C884.673,621.502 884.653,621.609 884.644,621.717C884.456,622.647 884.579,623.614 884.994,624.467C885.326,625.184 885.844,625.798 886.494,626.247L892.164,630.167L893.514,631.107C894.265,631.63 895.159,631.91 896.074,631.907C896.427,631.907 896.779,631.867 897.124,631.787C897.164,631.777 897.194,631.767 897.234,631.757C897.649,631.649 898.047,631.48 898.414,631.257C899.095,630.844 899.654,630.257 900.034,629.557L915.694,600.647C921.041,590.764 922.623,579.268 920.144,568.307Z" style="fill:rgb(182,61,66);fill-rule:nonzero;"/>
        </g>
        <g transform="matrix(2.00745,0,0,2.00745,486,1072.79)">
            <path d="M647.893,353.651L656.893,391.651L643.893,423.651L652.893,392.651L647.893,353.651Z" style="fill-opacity:0.2;fill-rule:nonzero;"/>
        </g>
        <g transform="matrix(2.00745,0,0,2.00745,10.089,665.105)">
            <path d="M896.827,491.302C898.885,490.568 900.778,489.434 902.395,487.965C903.11,487.326 903.878,486.734 904.591,486.096C910.889,480.463 912.782,470.776 909.972,462.807C907.162,454.839 900.173,448.714 892.187,445.953C884.201,443.193 875.35,443.57 867.241,445.946C858.507,448.505 849.76,454.268 847.685,463.129C847.133,465.488 847.112,468.105 848.718,470.095C849.201,470.696 849.834,471.16 850.552,471.44C853.383,472.525 854.96,470.31 857.072,469.369C859.976,468.076 863.55,469.473 865.571,471.926C867.592,474.379 868.34,477.637 868.651,480.801C868.714,482.751 869.019,484.686 869.561,486.56C870.134,488.461 871.654,489.935 873.572,490.449C875.851,490.87 878.042,489.301 879.475,487.481C880.909,485.66 881.925,483.498 883.619,481.917C885.313,480.337 888.075,479.502 889.932,480.888C890.554,481.413 891.078,482.043 891.482,482.749C894.328,487.121 893.981,486.931 896.827,491.302L896.827,491.302Z" style="fill:rgb(47,46,65);fill-rule:nonzero;"/>
        </g>
        <g transform="matrix(2.00745,0,0,2.00745,10.089,665.105)">
            <path d="M779.206,581.219L761.878,589.015C760.378,589.69 759.698,591.481 760.373,592.982L762.425,597.542C761.926,597.768 761.7,598.363 761.923,598.864L762.744,600.688C762.97,601.187 763.566,601.413 764.066,601.189L764.887,603.013C764.388,603.24 764.162,603.835 764.385,604.335L765.206,606.159C765.432,606.658 766.027,606.884 766.528,606.661L777.606,631.284C778.281,632.785 780.072,633.464 781.572,632.789L798.9,624.993C800.4,624.318 801.08,622.527 800.405,621.027L783.172,582.724C782.497,581.224 780.706,580.544 779.206,581.219Z" style="fill:rgb(63,61,86);fill-rule:nonzero;"/>
        </g>
        <g transform="matrix(2.00745,0,0,2.00745,10.089,665.105)">
            <path d="M797.194,618.767L794.754,613.337L788.354,599.117L782.734,586.627C782.088,585.188 780.374,584.534 778.934,585.177L769.394,589.467L765.024,591.437C763.59,592.088 762.942,593.8 763.584,595.237L769.394,608.157L771.624,613.107L778.044,627.387C778.698,628.823 780.413,629.471 781.854,628.827L795.754,622.567C797.189,621.917 797.838,620.205 797.194,618.767Z" style="fill:rgb(104,83,116);fill-rule:nonzero;"/>
        </g>
    </g>
</svg>
